<?xml version="1.0" encoding="utf-8" ?>
<svg baseProfile="full" height="1024" version="1.1" width="1536" xmlns="http://www.w3.org/2000/svg" xmlns:ev="http://www.w3.org/2001/xml-events" xmlns:xlink="http://www.w3.org/1999/xlink"><defs /><path d="M 808,254 L 807,255 L 799,255 L 798,256 L 793,256 L 792,257 L 788,257 L 787,258 L 784,258 L 783,259 L 781,259 L 780,260 L 778,260 L 777,261 L 775,261 L 774,262 L 772,262 L 771,263 L 770,263 L 769,264 L 767,264 L 766,265 L 765,265 L 764,266 L 762,266 L 761,267 L 760,267 L 759,268 L 758,268 L 757,269 L 756,269 L 755,270 L 754,270 L 753,271 L 752,271 L 751,272 L 750,272 L 749,273 L 747,273 L 746,274 L 745,274 L 744,275 L 743,275 L 742,276 L 741,276 L 740,277 L 738,277 L 737,276 L 736,276 L 735,275 L 733,275 L 732,274 L 730,274 L 729,273 L 728,273 L 727,272 L 725,272 L 724,271 L 722,271 L 721,270 L 719,270 L 718,269 L 717,269 L 716,268 L 714,268 L 713,267 L 711,267 L 710,266 L 707,266 L 706,265 L 704,265 L 703,264 L 698,264 L 697,263 L 692,263 L 691,262 L 668,262 L 667,263 L 661,263 L 660,264 L 656,264 L 655,265 L 652,265 L 651,266 L 648,266 L 647,267 L 645,267 L 644,268 L 643,268 L 642,269 L 640,269 L 639,270 L 638,270 L 637,271 L 636,271 L 635,272 L 633,272 L 632,273 L 631,273 L 630,274 L 629,274 L 628,275 L 627,275 L 626,276 L 624,276 L 623,277 L 622,277 L 621,278 L 620,278 L 619,279 L 618,279 L 617,280 L 616,280 L 615,281 L 614,281 L 613,282 L 612,282 L 611,283 L 610,283 L 609,284 L 608,284 L 606,286 L 605,286 L 604,287 L 603,287 L 602,288 L 601,288 L 600,289 L 599,289 L 598,290 L 597,290 L 596,291 L 595,291 L 593,293 L 592,293 L 591,294 L 590,294 L 589,295 L 588,295 L 587,296 L 586,296 L 585,297 L 584,297 L 583,298 L 582,298 L 581,299 L 580,299 L 579,300 L 578,300 L 577,301 L 576,301 L 575,302 L 574,302 L 573,303 L 572,303 L 571,304 L 570,304 L 569,305 L 568,305 L 567,306 L 566,306 L 565,307 L 564,307 L 563,308 L 562,308 L 561,309 L 560,309 L 559,310 L 558,310 L 557,311 L 556,311 L 555,312 L 554,312 L 553,313 L 551,313 L 550,314 L 549,314 L 548,315 L 546,315 L 545,316 L 543,316 L 542,317 L 540,317 L 539,318 L 536,318 L 535,319 L 533,319 L 532,320 L 528,320 L 527,321 L 523,321 L 522,322 L 515,322 L 514,323 L 494,323 L 493,322 L 484,322 L 483,321 L 480,321 L 479,320 L 475,320 L 474,319 L 471,319 L 470,318 L 468,318 L 467,317 L 464,317 L 463,316 L 461,316 L 460,315 L 458,315 L 457,314 L 455,314 L 454,313 L 452,313 L 451,312 L 450,312 L 449,311 L 447,311 L 446,310 L 444,310 L 443,309 L 442,309 L 441,308 L 439,308 L 438,307 L 437,307 L 436,306 L 435,306 L 434,305 L 432,305 L 431,304 L 430,304 L 429,303 L 427,303 L 426,302 L 425,302 L 424,301 L 423,301 L 422,300 L 421,300 L 420,299 L 418,299 L 417,298 L 416,298 L 415,297 L 413,297 L 412,296 L 411,296 L 410,295 L 408,295 L 407,294 L 406,294 L 405,293 L 403,293 L 402,292 L 401,292 L 391,302 L 391,303 L 387,307 L 387,308 L 383,312 L 383,313 L 380,316 L 380,317 L 378,319 L 378,320 L 376,322 L 376,323 L 374,325 L 374,326 L 372,328 L 372,329 L 370,331 L 370,332 L 369,333 L 369,334 L 367,336 L 367,337 L 366,338 L 366,339 L 364,341 L 364,342 L 363,343 L 363,344 L 362,345 L 362,346 L 361,347 L 361,348 L 360,349 L 360,350 L 358,352 L 358,353 L 357,354 L 357,355 L 356,356 L 356,357 L 355,358 L 355,359 L 354,360 L 354,361 L 353,362 L 353,363 L 352,364 L 352,365 L 351,366 L 351,367 L 350,368 L 350,369 L 349,370 L 349,371 L 348,372 L 348,374 L 347,375 L 347,376 L 346,377 L 346,378 L 345,379 L 345,380 L 344,381 L 344,383 L 343,384 L 343,385 L 342,386 L 342,387 L 341,388 L 341,390 L 340,391 L 340,392 L 339,393 L 339,395 L 338,396 L 338,397 L 337,398 L 337,400 L 336,401 L 336,403 L 335,404 L 335,405 L 334,406 L 334,408 L 333,409 L 333,411 L 332,412 L 332,414 L 331,415 L 331,417 L 330,418 L 330,420 L 329,421 L 329,423 L 328,424 L 328,426 L 327,427 L 327,429 L 326,430 L 326,432 L 325,433 L 325,436 L 324,437 L 324,439 L 323,440 L 323,443 L 322,444 L 322,446 L 321,447 L 321,450 L 320,451 L 320,454 L 319,455 L 319,458 L 318,459 L 318,462 L 317,463 L 317,466 L 316,467 L 316,471 L 315,472 L 315,476 L 314,477 L 314,481 L 313,482 L 313,486 L 312,487 L 312,492 L 311,493 L 311,498 L 310,499 L 310,505 L 309,506 L 309,513 L 308,514 L 308,524 L 307,525 L 307,549 L 308,550 L 308,556 L 309,557 L 309,560 L 311,562 L 312,562 L 313,563 L 314,563 L 315,564 L 317,564 L 318,565 L 319,565 L 320,566 L 322,566 L 323,567 L 324,567 L 325,568 L 326,568 L 327,569 L 328,569 L 329,570 L 330,570 L 331,571 L 333,571 L 334,572 L 335,572 L 336,573 L 337,573 L 338,574 L 339,574 L 340,575 L 341,575 L 342,576 L 343,576 L 344,577 L 346,577 L 347,578 L 348,578 L 349,579 L 350,579 L 351,580 L 352,580 L 353,581 L 354,581 L 355,582 L 356,582 L 357,583 L 358,583 L 359,584 L 360,584 L 361,585 L 362,585 L 363,586 L 364,586 L 365,587 L 366,587 L 367,588 L 368,588 L 369,589 L 370,589 L 371,590 L 372,590 L 373,591 L 374,591 L 375,592 L 376,592 L 377,593 L 379,593 L 380,594 L 381,594 L 382,595 L 383,595 L 384,596 L 385,596 L 386,597 L 387,597 L 388,598 L 389,598 L 390,599 L 391,599 L 392,600 L 393,600 L 394,601 L 395,601 L 396,602 L 397,602 L 398,603 L 399,603 L 400,604 L 401,604 L 402,605 L 403,605 L 404,606 L 405,606 L 406,607 L 407,607 L 408,608 L 409,608 L 410,609 L 411,609 L 412,610 L 413,610 L 414,611 L 415,611 L 416,612 L 417,612 L 418,613 L 419,613 L 420,614 L 421,614 L 422,615 L 423,615 L 425,617 L 424,618 L 424,619 L 423,620 L 423,621 L 422,622 L 422,624 L 421,625 L 421,627 L 420,628 L 420,631 L 419,632 L 419,647 L 420,648 L 420,652 L 421,653 L 421,655 L 422,656 L 422,658 L 423,659 L 423,660 L 424,661 L 424,662 L 425,663 L 425,664 L 426,665 L 426,666 L 429,669 L 429,670 L 437,678 L 438,678 L 441,681 L 442,681 L 443,682 L 444,682 L 445,683 L 446,683 L 447,684 L 448,684 L 449,685 L 451,685 L 452,686 L 454,686 L 455,687 L 458,687 L 459,688 L 473,688 L 474,687 L 478,687 L 479,686 L 480,686 L 481,687 L 481,688 L 480,689 L 481,690 L 481,699 L 482,700 L 482,703 L 483,704 L 483,706 L 484,707 L 484,708 L 485,709 L 485,710 L 486,711 L 486,712 L 487,713 L 487,714 L 488,715 L 488,716 L 490,718 L 490,719 L 500,729 L 501,729 L 503,731 L 504,731 L 505,732 L 506,732 L 507,733 L 508,733 L 509,734 L 511,734 L 512,735 L 514,735 L 515,736 L 519,736 L 520,737 L 535,737 L 536,736 L 539,736 L 540,735 L 542,735 L 543,734 L 544,734 L 545,733 L 547,733 L 548,732 L 549,732 L 550,731 L 551,732 L 551,734 L 552,735 L 552,741 L 553,742 L 553,745 L 554,746 L 554,748 L 555,749 L 555,750 L 556,751 L 556,752 L 557,753 L 557,754 L 559,756 L 559,757 L 568,766 L 569,766 L 571,768 L 572,768 L 573,769 L 574,769 L 575,770 L 577,770 L 578,771 L 579,771 L 580,772 L 583,772 L 584,773 L 587,773 L 588,774 L 594,774 L 595,775 L 604,775 L 605,774 L 608,774 L 609,773 L 611,773 L 612,772 L 614,772 L 615,771 L 616,771 L 617,770 L 618,770 L 619,771 L 619,774 L 620,775 L 620,778 L 621,779 L 621,781 L 622,782 L 622,783 L 623,784 L 623,785 L 624,786 L 624,787 L 625,788 L 625,789 L 627,791 L 627,792 L 637,802 L 638,802 L 640,804 L 641,804 L 642,805 L 643,805 L 644,806 L 645,806 L 646,807 L 647,807 L 648,808 L 650,808 L 651,809 L 653,809 L 654,810 L 657,810 L 658,811 L 671,811 L 672,810 L 676,810 L 677,809 L 679,809 L 680,808 L 682,808 L 683,807 L 685,807 L 686,806 L 687,806 L 688,805 L 689,805 L 691,803 L 692,803 L 695,800 L 696,800 L 705,791 L 706,791 L 711,786 L 712,786 L 713,785 L 714,786 L 715,786 L 716,787 L 717,787 L 718,788 L 719,788 L 720,789 L 721,789 L 722,790 L 723,790 L 724,791 L 725,791 L 726,792 L 727,792 L 728,793 L 729,793 L 730,794 L 731,794 L 732,795 L 733,795 L 734,796 L 735,796 L 736,797 L 737,797 L 738,798 L 739,798 L 740,799 L 741,799 L 742,800 L 743,800 L 744,801 L 745,801 L 746,802 L 747,802 L 748,803 L 749,803 L 750,804 L 751,804 L 752,805 L 754,805 L 755,806 L 756,806 L 757,807 L 758,807 L 759,808 L 762,808 L 763,809 L 765,809 L 766,810 L 769,810 L 770,811 L 776,811 L 777,812 L 787,812 L 788,811 L 791,811 L 792,810 L 795,810 L 796,809 L 798,809 L 799,808 L 800,808 L 801,807 L 803,807 L 804,806 L 805,806 L 807,804 L 808,804 L 810,802 L 811,802 L 821,792 L 821,791 L 823,789 L 823,788 L 824,787 L 824,786 L 825,785 L 825,784 L 826,783 L 826,782 L 827,781 L 827,780 L 828,779 L 828,778 L 829,777 L 829,776 L 831,774 L 832,775 L 833,775 L 834,776 L 835,776 L 836,777 L 837,777 L 838,778 L 840,778 L 841,779 L 845,779 L 846,780 L 864,780 L 865,779 L 868,779 L 869,778 L 871,778 L 872,777 L 874,777 L 875,776 L 876,776 L 877,775 L 878,775 L 880,773 L 881,773 L 882,772 L 883,772 L 887,768 L 888,768 L 891,765 L 891,764 L 895,760 L 895,759 L 896,758 L 896,757 L 898,755 L 898,754 L 899,753 L 899,751 L 900,750 L 900,749 L 901,748 L 901,746 L 902,745 L 902,742 L 903,741 L 903,739 L 904,738 L 904,737 L 905,736 L 906,736 L 907,737 L 909,737 L 910,738 L 913,738 L 914,739 L 927,739 L 928,738 L 932,738 L 933,737 L 935,737 L 936,736 L 938,736 L 939,735 L 941,735 L 942,734 L 943,734 L 944,733 L 945,733 L 947,731 L 948,731 L 950,729 L 951,729 L 960,720 L 960,719 L 962,717 L 962,716 L 963,715 L 963,714 L 965,712 L 965,711 L 966,710 L 966,708 L 967,707 L 967,705 L 968,704 L 968,702 L 969,701 L 969,698 L 970,697 L 970,690 L 971,689 L 972,690 L 973,690 L 974,691 L 976,691 L 977,692 L 979,692 L 980,693 L 984,693 L 985,694 L 999,694 L 1000,693 L 1003,693 L 1004,692 L 1007,692 L 1008,691 L 1009,691 L 1010,690 L 1012,690 L 1013,689 L 1014,689 L 1015,688 L 1016,688 L 1018,686 L 1019,686 L 1021,684 L 1022,684 L 1031,675 L 1031,674 L 1033,672 L 1033,671 L 1034,670 L 1034,669 L 1035,668 L 1035,667 L 1036,666 L 1036,665 L 1037,664 L 1037,662 L 1038,661 L 1038,659 L 1039,658 L 1039,654 L 1040,653 L 1040,639 L 1039,638 L 1039,633 L 1038,632 L 1038,629 L 1037,628 L 1037,626 L 1036,625 L 1036,622 L 1035,621 L 1036,620 L 1038,620 L 1039,619 L 1041,619 L 1042,618 L 1044,618 L 1045,617 L 1048,617 L 1049,616 L 1051,616 L 1052,615 L 1054,615 L 1055,614 L 1057,614 L 1058,613 L 1060,613 L 1061,612 L 1062,612 L 1063,611 L 1065,611 L 1066,610 L 1068,610 L 1069,609 L 1071,609 L 1072,608 L 1074,608 L 1075,607 L 1076,607 L 1077,606 L 1079,606 L 1080,605 L 1081,605 L 1082,604 L 1084,604 L 1085,603 L 1086,603 L 1087,602 L 1089,602 L 1090,601 L 1091,601 L 1092,600 L 1093,600 L 1094,599 L 1096,599 L 1097,598 L 1098,598 L 1099,597 L 1100,597 L 1101,596 L 1103,596 L 1104,595 L 1105,595 L 1106,594 L 1107,594 L 1108,593 L 1110,593 L 1111,592 L 1112,592 L 1113,591 L 1114,591 L 1115,590 L 1116,590 L 1117,589 L 1119,589 L 1120,588 L 1121,588 L 1122,587 L 1123,587 L 1124,586 L 1125,586 L 1126,585 L 1127,585 L 1128,584 L 1129,584 L 1130,583 L 1131,583 L 1132,582 L 1134,582 L 1135,581 L 1136,581 L 1137,580 L 1138,580 L 1139,579 L 1140,579 L 1141,578 L 1142,578 L 1143,577 L 1144,577 L 1145,576 L 1146,576 L 1147,575 L 1148,575 L 1149,574 L 1150,574 L 1151,573 L 1152,573 L 1153,572 L 1154,572 L 1155,571 L 1156,571 L 1157,570 L 1158,570 L 1159,569 L 1160,569 L 1161,568 L 1162,568 L 1163,567 L 1164,567 L 1166,565 L 1167,565 L 1168,564 L 1169,564 L 1170,563 L 1171,563 L 1172,562 L 1173,562 L 1174,561 L 1175,561 L 1177,559 L 1178,559 L 1179,558 L 1180,558 L 1180,557 L 1181,556 L 1181,552 L 1182,551 L 1182,544 L 1183,543 L 1183,500 L 1182,499 L 1182,488 L 1181,487 L 1181,479 L 1180,478 L 1180,472 L 1179,471 L 1179,465 L 1178,464 L 1178,459 L 1177,458 L 1177,453 L 1176,452 L 1176,448 L 1175,447 L 1175,443 L 1174,442 L 1174,438 L 1173,437 L 1173,434 L 1172,433 L 1172,429 L 1171,428 L 1171,425 L 1170,424 L 1170,421 L 1169,420 L 1169,418 L 1168,417 L 1168,414 L 1167,413 L 1167,410 L 1166,409 L 1166,407 L 1165,406 L 1165,403 L 1164,402 L 1164,400 L 1163,399 L 1163,397 L 1162,396 L 1162,393 L 1161,392 L 1161,390 L 1160,389 L 1160,387 L 1159,386 L 1159,384 L 1158,383 L 1158,381 L 1157,380 L 1157,379 L 1156,378 L 1156,376 L 1155,375 L 1155,373 L 1154,372 L 1154,371 L 1153,370 L 1153,368 L 1152,367 L 1152,366 L 1151,365 L 1151,363 L 1150,362 L 1150,361 L 1149,360 L 1149,359 L 1148,358 L 1148,356 L 1147,355 L 1147,354 L 1146,353 L 1146,352 L 1145,351 L 1145,350 L 1144,349 L 1144,348 L 1143,347 L 1143,346 L 1142,345 L 1142,343 L 1141,342 L 1141,341 L 1139,339 L 1139,337 L 1138,336 L 1138,335 L 1136,333 L 1136,332 L 1135,331 L 1135,330 L 1134,329 L 1134,328 L 1133,327 L 1133,326 L 1132,325 L 1132,324 L 1130,322 L 1130,321 L 1129,320 L 1129,319 L 1128,318 L 1128,317 L 1126,315 L 1126,314 L 1124,312 L 1124,311 L 1123,310 L 1123,309 L 1121,307 L 1121,306 L 1118,303 L 1118,302 L 1116,300 L 1116,299 L 1114,297 L 1114,296 L 1112,294 L 1110,294 L 1109,295 L 1108,295 L 1107,296 L 1106,296 L 1105,297 L 1104,297 L 1103,298 L 1102,298 L 1101,299 L 1100,299 L 1099,300 L 1098,300 L 1097,301 L 1096,301 L 1095,302 L 1094,302 L 1093,303 L 1092,303 L 1091,304 L 1090,304 L 1089,305 L 1088,305 L 1087,306 L 1086,306 L 1085,307 L 1084,307 L 1083,308 L 1082,308 L 1081,309 L 1080,309 L 1079,310 L 1078,310 L 1077,311 L 1075,311 L 1074,312 L 1073,312 L 1072,313 L 1071,313 L 1070,314 L 1069,314 L 1068,315 L 1067,315 L 1066,316 L 1064,316 L 1063,317 L 1062,317 L 1061,318 L 1060,318 L 1059,319 L 1057,319 L 1056,320 L 1054,320 L 1053,321 L 1051,321 L 1050,322 L 1048,322 L 1047,323 L 1044,323 L 1043,324 L 1040,324 L 1039,325 L 1036,325 L 1035,326 L 1031,326 L 1030,327 L 1023,327 L 1022,328 L 997,328 L 996,327 L 989,327 L 988,326 L 984,326 L 983,325 L 980,325 L 979,324 L 976,324 L 975,323 L 972,323 L 971,322 L 969,322 L 968,321 L 966,321 L 965,320 L 964,320 L 963,319 L 961,319 L 960,318 L 958,318 L 957,317 L 956,317 L 955,316 L 954,316 L 953,315 L 951,315 L 950,314 L 949,314 L 948,313 L 947,313 L 946,312 L 945,312 L 944,311 L 943,311 L 942,310 L 941,310 L 940,309 L 939,309 L 938,308 L 937,308 L 936,307 L 935,307 L 934,306 L 933,306 L 932,305 L 931,305 L 930,304 L 929,304 L 928,303 L 927,303 L 926,302 L 925,302 L 923,300 L 922,300 L 921,299 L 920,299 L 919,298 L 918,298 L 917,297 L 916,297 L 915,296 L 914,296 L 912,294 L 911,294 L 910,293 L 909,293 L 908,292 L 907,292 L 906,291 L 905,291 L 903,289 L 902,289 L 901,288 L 900,288 L 899,287 L 898,287 L 897,286 L 896,286 L 894,284 L 893,284 L 892,283 L 891,283 L 890,282 L 889,282 L 888,281 L 887,281 L 885,279 L 884,279 L 883,278 L 882,278 L 881,277 L 880,277 L 879,276 L 878,276 L 877,275 L 876,275 L 875,274 L 874,274 L 873,273 L 871,273 L 870,272 L 869,272 L 868,271 L 867,271 L 866,270 L 865,270 L 864,269 L 862,269 L 861,268 L 860,268 L 859,267 L 858,267 L 857,266 L 855,266 L 854,265 L 853,265 L 852,264 L 850,264 L 849,263 L 848,263 L 847,262 L 845,262 L 844,261 L 842,261 L 841,260 L 840,260 L 839,259 L 837,259 L 836,258 L 834,258 L 833,257 L 830,257 L 829,256 L 826,256 L 825,255 L 817,255 L 816,254 Z" fill="black" /></svg>